<svg width="3028" height="1561" viewBox="0 0 3028 1561" fill="none" xmlns="http://www.w3.org/2000/svg">
<g clip-path="url(#clip0_59_459)">
<path d="M137.169 1176C125.183 1176 119.19 1170.01 119.19 1158.02V352.817C119.19 340.831 125.183 334.838 137.169 334.838H671.403C682.533 334.838 688.098 340.831 688.098 352.817V500.502C688.098 512.488 682.533 518.481 671.403 518.481H331.086V677.724H622.603C633.733 677.724 639.298 683.717 639.298 695.703V839.535C639.298 850.665 633.733 856.23 622.603 856.23H331.086V1158.02C331.086 1170.01 325.521 1176 314.391 1176H137.169ZM992.096 1191.41C896.208 1191.41 820.867 1168.72 766.074 1123.35C712.137 1077.97 685.168 1009.91 685.168 919.157V794.588C685.168 703.836 712.137 635.773 766.074 590.397C820.011 545.021 895.352 522.334 992.096 522.334C1088.84 522.334 1164.18 545.021 1218.12 590.397C1272.06 635.773 1299.02 703.836 1299.02 794.588V919.157C1299.02 1009.91 1272.06 1077.97 1218.12 1123.35C1164.18 1168.72 1088.84 1191.41 992.096 1191.41ZM992.096 1018.04C1027.2 1018.04 1052.88 1009.05 1069.15 991.073C1085.42 973.094 1093.55 942.701 1093.55 899.893V812.567C1093.55 770.615 1085.42 740.65 1069.15 722.671C1052.88 704.692 1027.2 695.703 992.096 695.703C956.994 695.703 931.31 704.692 915.043 722.671C898.776 740.65 890.643 770.615 890.643 812.567V899.893C890.643 942.701 898.776 973.094 915.043 991.073C931.31 1009.05 956.994 1018.04 992.096 1018.04ZM1360.39 1176C1348.4 1176 1342.41 1170.01 1342.41 1158.02V702.124C1342.41 674.727 1341.55 649.471 1339.84 626.355C1338.98 602.383 1337.7 578.839 1335.99 555.723C1334.27 543.737 1339.84 537.744 1352.68 537.744H1499.08C1509.35 537.744 1515.78 542.453 1518.34 551.87C1521.77 566.425 1524.34 582.692 1526.05 600.671C1527.76 617.794 1529.05 634.917 1529.9 652.039L1547.88 734.229V1158.02C1547.88 1170.01 1541.89 1176 1529.9 1176H1360.39ZM1535.04 815.135L1520.91 649.471C1538.04 625.499 1557.3 604.095 1578.7 585.26C1600.96 565.569 1623.22 550.158 1645.48 539.028C1667.74 527.898 1688.29 522.334 1707.12 522.334C1720.82 522.334 1731.95 523.618 1740.51 526.186C1749.93 529.611 1754.64 536.888 1754.64 548.018C1754.64 571.134 1754.21 597.674 1753.36 627.639C1753.36 656.748 1752.07 684.145 1749.5 709.829C1747.79 723.528 1740.94 729.092 1728.96 726.524C1724.68 725.668 1718.68 724.812 1710.98 723.956C1703.27 723.099 1695.99 722.671 1689.15 722.671C1672.88 722.671 1655.76 726.096 1637.78 732.945C1619.8 739.794 1601.82 750.068 1583.84 763.766C1566.72 776.608 1550.45 793.731 1535.04 815.135ZM2010.47 1428.99C1901.74 1428.99 1822.97 1415.72 1774.17 1389.18C1726.23 1363.5 1702.26 1325.4 1702.26 1274.88C1702.26 1244.92 1709.54 1217.09 1724.09 1191.41C1738.64 1166.58 1763.47 1145.18 1798.57 1127.2L1952.68 1168.29C1936.41 1175.14 1924.43 1184.13 1916.72 1195.26C1909.87 1206.39 1906.45 1217.95 1906.45 1229.94C1906.45 1247.92 1914.58 1260.33 1930.85 1267.18C1947.97 1274.88 1977.94 1279.17 2020.74 1280.02C2071.26 1280.88 2104.22 1277.45 2119.63 1269.75C2135.04 1262.9 2142.74 1250.06 2142.74 1231.22C2142.74 1218.38 2139.32 1208.53 2132.47 1201.68C2125.62 1195.69 2114.49 1192.27 2099.08 1191.41L1870.49 1174.72C1831.11 1172.15 1800.29 1160.16 1778.03 1138.76C1755.77 1117.35 1744.64 1087.82 1744.64 1050.15C1744.64 1021.04 1751.06 994.925 1763.9 971.809C1777.6 948.694 1801.14 927.718 1834.53 908.883L1955.25 951.262C1939.84 956.399 1929.14 962.82 1923.14 970.525C1918.01 978.231 1915.44 985.936 1915.44 993.641C1915.44 1001.35 1918.01 1007.34 1923.14 1011.62C1929.14 1015.04 1938.98 1017.19 1952.68 1018.04L2151.73 1030.88C2221.94 1036.02 2271.17 1054.86 2299.42 1087.39C2328.53 1119.07 2343.08 1164.87 2343.08 1224.8C2343.08 1295.86 2316.97 1347.66 2264.75 1380.19C2212.52 1412.72 2127.76 1428.99 2010.47 1428.99ZM2025.88 969.241C1935.13 969.241 1867.92 951.262 1824.26 915.304C1780.6 878.49 1758.76 822.84 1758.76 748.356C1758.76 671.303 1780.6 614.369 1824.26 577.555C1867.92 540.741 1935.13 522.334 2025.88 522.334C2116.63 522.334 2183.41 540.741 2226.22 577.555C2269.88 614.369 2291.71 671.303 2291.71 748.356C2291.71 822.84 2269.88 878.49 2226.22 915.304C2183.41 951.262 2116.63 969.241 2025.88 969.241ZM2025.88 822.84C2053.28 822.84 2072.11 816.847 2082.39 804.861C2093.52 792.875 2099.08 773.184 2099.08 745.787C2099.08 718.391 2093.52 698.699 2082.39 686.713C2072.11 673.871 2053.28 667.45 2025.88 667.45C1997.63 667.45 1977.94 673.871 1966.81 686.713C1956.53 698.699 1951.4 718.391 1951.4 745.787C1951.4 773.184 1956.53 792.875 1966.81 804.861C1977.94 816.847 1997.63 822.84 2025.88 822.84ZM2212.09 592.965L2078.53 545.449C2078.53 516.34 2079.82 488.088 2082.39 460.691C2084.95 433.294 2087.52 409.75 2090.09 390.059C2092.66 379.785 2097.8 374.649 2105.5 374.649H2236.49C2251.05 374.649 2256.18 381.07 2251.9 393.912C2241.63 424.733 2233.07 456.838 2226.22 490.228C2219.37 523.618 2214.66 557.863 2212.09 592.965ZM2640.45 1191.41C2535.14 1191.41 2458.09 1169.58 2409.29 1125.92C2360.49 1082.25 2336.09 1017.61 2336.09 931.999V795.872C2336.09 705.977 2360.06 637.913 2408.01 591.681C2456.81 545.449 2533 522.334 2636.6 522.334C2736.77 522.334 2811.68 544.593 2861.33 589.113C2911.85 632.776 2937.1 698.271 2937.1 785.598V885.767C2937.1 897.753 2931.11 903.746 2919.12 903.746H2537.71V940.988C2537.71 973.522 2545.42 998.35 2560.83 1015.47C2576.24 1031.74 2601.49 1039.87 2636.6 1039.87C2663.99 1039.87 2685.4 1035.59 2700.81 1027.03C2717.07 1018.47 2725.21 1005.2 2725.21 987.22C2725.21 976.946 2731.2 971.809 2743.19 971.809H2906.28C2917.41 971.809 2923.41 977.374 2924.26 988.504C2925.12 1057.85 2902.43 1109.22 2856.2 1142.61C2809.97 1175.14 2738.05 1191.41 2640.45 1191.41ZM2537.71 790.735H2736.77V785.598C2736.77 746.215 2729.06 717.963 2713.65 700.84C2698.24 683.717 2673.41 675.155 2639.17 675.155C2603.21 675.155 2577.09 683.717 2560.83 700.84C2545.42 717.963 2537.71 746.215 2537.71 785.598V790.735Z" fill="#F5F5F5"/>
</g>
<defs>
<clipPath id="clip0_59_459">
<rect width="3028" height="1561" rx="5" fill="white"/>
</clipPath>
</defs>
</svg>
