<svg xmlns="http://www.w3.org/2000/svg" width="240" height="64" fill="none" viewBox="0 0 240 64"><g clip-path="url(#a)"><mask id="b" width="119" height="48" x="61" y="15" fill="#000" maskUnits="userSpaceOnUse"><path fill="#fff" d="M61 15h119v48H61z"/><path d="M63.023 51q-.744 0-.744-.744V16.935q0-.744.744-.744h22.108q.69 0 .691.744v6.111q0 .744-.69.744H71.047v6.59h12.064q.69 0 .69.744v5.952q0 .69-.69.691H71.048v12.489q0 .744-.691.744zm35.38.638q-5.954 0-9.354-2.817-3.348-2.817-3.348-8.45v-5.155q0-5.633 3.348-8.45t9.353-2.816 9.354 2.816 3.348 8.45v5.155q0 5.633-3.348 8.45t-9.354 2.817m0-7.175q2.178 0 3.188-1.116t1.01-3.773V35.96q0-2.604-1.01-3.72t-3.189-1.116-3.188 1.116-1.01 3.72v3.614q0 2.657 1.01 3.773t3.188 1.116M113.642 51q-.744 0-.744-.744V31.39a43 43 0 0 0-.106-3.136 77 77 0 0 0-.16-2.923q-.106-.744.691-.744h6.059q.637 0 .797.585.212.903.319 2.02.106 1.062.159 2.125l.744 3.401v17.538q0 .744-.744.744zm7.228-14.934-.585-6.855a15.6 15.6 0 0 1 2.392-2.657q1.382-1.223 2.763-1.914t2.551-.69q.85 0 1.382.159.584.213.584.903 0 1.435-.053 3.295a34 34 0 0 1-.159 3.402q-.107.85-.851.69a9 9 0 0 0-.744-.106 8 8 0 0 0-.903-.053q-1.01 0-2.126.425-1.116.426-2.232 1.276-1.063.797-2.019 2.125m19.674 25.403q-6.749 0-9.778-1.647-2.976-1.595-2.976-4.73 0-1.86.903-3.454.904-1.541 3.082-2.657l6.378 1.7q-1.01.426-1.488 1.116-.425.69-.425 1.435 0 1.116 1.009 1.541 1.064.479 3.72.532 3.136.052 4.093-.425.956-.426.956-1.595 0-.797-.425-1.222-.425-.372-1.382-.425l-9.459-.691q-2.445-.159-3.827-1.488t-1.382-3.667q0-1.807.798-3.242.85-1.435 2.922-2.604l4.996 1.754q-.957.318-1.329.797-.318.479-.318.956 0 .48.318.744.372.212 1.223.266l8.237.532q4.358.319 6.112 2.338 1.807 1.965 1.807 5.687 0 4.41-3.242 6.43t-10.523 2.02m.638-19.025q-5.634 0-8.344-2.232-2.71-2.286-2.71-6.91 0-4.782 2.71-7.067t8.344-2.285 8.291 2.285q2.71 2.285 2.71 7.068 0 4.623-2.71 6.909-2.657 2.232-8.291 2.232m0-6.059q1.7 0 2.338-.744.691-.743.691-2.444t-.691-2.445q-.637-.797-2.338-.797-1.754 0-2.445.797-.637.743-.637 2.445 0 1.7.637 2.444.692.744 2.445.744m7.706-9.512-5.527-1.967q0-1.807.159-3.507.16-1.7.319-2.923.16-.638.638-.638h5.421q.904 0 .637.797a35 35 0 0 0-1.062 3.986 33 33 0 0 0-.585 4.252m17.726 24.765q-6.536 0-9.566-2.71-3.029-2.71-3.029-8.025V35.27q0-5.58 2.976-8.45 3.03-2.87 9.46-2.87 6.218 0 9.3 2.764 3.136 2.71 3.136 8.131v4.145q0 .744-.744.744h-15.784v1.542q0 2.019.957 3.082.956 1.01 3.135 1.01 1.701 0 2.657-.532 1.01-.531 1.01-1.647 0-.638.744-.638h6.749q.692 0 .744.69.054 4.305-2.816 6.378-2.87 2.02-8.929 2.02m-4.251-16.581h8.237v-.213q0-2.445-.956-3.507-.957-1.063-3.083-1.063-2.232 0-3.241 1.063-.957 1.062-.957 3.507z"/></mask><path fill="currentColor" d="M71.048 23.79v-1h-1v1zm0 6.59h-1v1h1zm0 7.387v-1h-1v1zM63.023 51v-1c-.094 0 .02-.023.15.107.129.13.106.243.106.149h-2c0 .402.101.887.479 1.265s.863.479 1.265.479zm-.744-.744h1V16.935h-2v33.321zm0-33.321h1c0-.094.023.019-.107.149s-.243.107-.149.107v-2c-.402 0-.887.1-1.265.478s-.479.863-.479 1.265zm.744-.744v1h22.108v-2H63.023zm22.108 0v1c.028 0 .01.004-.035-.013a.5.5 0 0 1-.18-.121c-.121-.131-.094-.234-.094-.122h2c0-.385-.088-.86-.44-1.239-.365-.393-.847-.505-1.25-.505zm.691.744h-1v6.111h2v-6.111zm0 6.111h-1c0 .112-.027.009.094-.122a.5.5 0 0 1 .18-.122c.045-.016.063-.012.035-.012v2c.404 0 .886-.112 1.251-.505.352-.38.44-.854.44-1.239zm-.69.744v-1H71.047v2H85.13zm-14.084 0h-1v6.59h2v-6.59zm0 6.59v1h12.064v-2H71.048zm12.064 0v1c.028 0 .01.004-.036-.012a.5.5 0 0 1-.179-.121c-.122-.132-.095-.235-.095-.123h2c0-.384-.087-.86-.44-1.238-.365-.394-.846-.506-1.25-.506zm.69.744h-1v5.952h2v-5.952zm0 5.952h-1c0 .076-.018-.05.12-.189.14-.138.266-.12.19-.12v2c.384 0 .856-.097 1.225-.466.369-.368.465-.84.465-1.225zm-.69.691v-1H71.048v2h12.064zm-12.064 0h-1v12.489h2V37.767zm0 12.489h-1c0 .111-.028.009.094-.123a.5.5 0 0 1 .18-.12c.045-.017.063-.013.035-.013v2c.404 0 .886-.112 1.25-.506.353-.379.44-.853.44-1.238zm-.691.744v-1h-7.334v2h7.334zm18.692-2.179-.644.765.006.005zm0-22.055-.644-.765zm18.707 0 .643-.765zm0 22.055-.644-.765zm-6.165-5.474-.742-.67zM95.214 32.24l-.742-.67zm0 11.107-.742.671zm3.188 8.29v-1c-3.816 0-6.681-.901-8.715-2.586l-.638.77-.638.77c2.5 2.071 5.871 3.047 9.991 3.047zm-9.353-2.816.644-.765C87.748 46.42 86.7 43.923 86.7 40.37h-2c0 3.96 1.185 7.096 3.704 9.215zm-3.348-8.45h1v-5.155h-2v5.155zm0-5.155h1c0-3.552 1.047-6.049 2.992-7.685l-.644-.765-.644-.765c-2.52 2.12-3.704 5.256-3.704 9.215zm3.348-8.45.644.765c1.994-1.678 4.854-2.581 8.71-2.581v-2c-4.152 0-7.528.973-9.998 3.051zm9.353-2.816v1c3.856 0 6.715.903 8.71 2.581l.644-.765.643-.765c-2.469-2.078-5.845-3.052-9.997-3.052zm9.354 2.816-.644.765c1.944 1.636 2.992 4.133 2.992 7.685h2c0-3.96-1.185-7.095-3.705-9.215zm3.348 8.45h-1v5.155h2v-5.155zm0 5.155h-1c0 3.552-1.048 6.049-2.992 7.685l.644.765.643.765c2.52-2.12 3.705-5.255 3.705-9.215zm-3.348 8.45-.644-.765c-1.995 1.678-4.854 2.582-8.71 2.582v2c4.152 0 7.528-.974 9.997-3.052zm-9.354-4.358v1c1.607 0 2.996-.412 3.93-1.445l-.741-.67-.742-.672c-.411.455-1.148.787-2.447.787zm3.189-1.116.741.671c.928-1.025 1.269-2.597 1.269-4.444h-2c0 1.696-.332 2.639-.752 3.102zm1.01-3.773h1V35.96h-2v3.614zm0-3.614h1c0-1.818-.344-3.369-1.269-4.39l-.741.67-.742.671c.422.466.752 1.395.752 3.05zm-1.01-3.72.741-.67c-.934-1.034-2.323-1.446-3.93-1.446v2c1.3 0 2.036.332 2.447.787zm-3.189-1.116v-1c-1.606 0-2.995.412-3.93 1.445l.742.671.741.671c.412-.455 1.148-.787 2.447-.787zm-3.188 1.116-.742-.67c-.925 1.021-1.268 2.572-1.268 4.39h2c0-1.654.33-2.583.751-3.049zm-1.01 3.72h-1v3.614h2V35.96zm0 3.614h-1c0 1.847.34 3.42 1.268 4.444l.742-.67.741-.672c-.42-.463-.751-1.406-.751-3.102zm1.01 3.773-.742.671c.935 1.033 2.324 1.445 3.93 1.445v-2c-1.299 0-2.035-.332-2.447-.787zm17.579-15.093-1 .036.001.019.001.02zm-.16-2.923.998-.074-.003-.034-.005-.033zm7.547-.16.973-.228-.004-.017-.004-.017zm.319 2.02-.996.095.001.005zm.159 2.126-.999.05.004.083.018.08zm.744 3.401h1v-.108l-.023-.105zm-.531 3.348-.997.085.23 2.692 1.578-2.192zm-.585-6.855-.814-.581-.214.3.032.366zm2.392-2.657.66.75.002-.001zm2.763-1.914-.447-.894zm3.933-.531.341-.94-.026-.01-.028-.008zm.531 4.198-.999-.028-.001.014v.014zm-.159 3.402.992.124.002-.013.001-.012zm-.851.69.21-.977-.013-.003zm-.744-.106.111-.994zm-3.029.372-.356-.934zm-2.232 1.276.6.8.006-.005zM113.643 51v-1c-.094 0 .019-.023.149.107s.107.243.107.149h-2c0 .402.101.887.479 1.265s.863.479 1.265.479zm-.744-.744h1V31.39h-2v18.866zm0-18.866h1q0-1.731-.109-3.21l-.997.074-.998.074q.104 1.392.104 3.062zm-.106-3.136.999-.036a80 80 0 0 0-.161-2.96l-.998.073-.997.074q.105 1.416.157 2.885zm-.16-2.923.99-.141c-.014-.097.036.077-.137.264-.159.17-.305.133-.162.133v-2c-.388 0-.915.087-1.304.506-.404.435-.434.98-.377 1.38zm.691-.744v1h6.059v-2h-6.059zm6.059 0v1c.061 0 .009.013-.074-.047a.3.3 0 0 1-.082-.087c-.016-.024-.016-.034-.012-.018l.965-.263.965-.263a1.77 1.77 0 0 0-.653-.982 1.85 1.85 0 0 0-1.109-.34zm.797.585-.974.229q.196.824.297 1.885l.996-.095.995-.095q-.11-1.171-.341-2.153zm.319 2.02-.995.099q.104 1.038.155 2.076l.999-.05.999-.05a44 44 0 0 0-.163-2.175zm.159 2.125-.977.214.744 3.401.977-.214.977-.213-.744-3.402zm.744 3.401h-1v17.538h2V32.718zm0 17.538h-1c0 .094-.023-.02.107-.15.13-.129.243-.106.149-.106v2c.402 0 .888-.101 1.265-.479.378-.378.479-.863.479-1.265zm-.744.744v-1h-7.015v2h7.015zm.213-14.934.996-.085-.585-6.855-.996.085-.996.085.584 6.855zm-.585-6.855.814.581a14.6 14.6 0 0 1 2.238-2.488l-.66-.75-.661-.751a16.6 16.6 0 0 0-2.545 2.827zm2.392-2.657.662.749c.868-.768 1.718-1.353 2.548-1.768l-.447-.895-.447-.894c-1.012.506-2.005 1.197-2.979 2.059zm2.763-1.914.447.895c.825-.413 1.521-.585 2.104-.585v-2c-.976 0-1.981.287-2.998.796zm2.551-.69v1c.515 0 .869.05 1.094.117l.288-.958.287-.958c-.483-.145-1.051-.201-1.669-.201zm1.382.159-.342.94c.016.005.01.006-.006-.007a.2.2 0 0 1-.053-.058c-.016-.024-.02-.04-.02-.04 0 .003.005.023.005.068h2c0-.368-.078-.762-.306-1.114a1.84 1.84 0 0 0-.937-.729zm.584.903h-1q0 1.417-.052 3.267l.999.028 1 .029q.053-1.87.053-3.324zm-.053 3.295h-1q0 1.764-.154 3.302l.995.1.995.1q.165-1.65.164-3.502zm-.159 3.402-.993-.124c-.009.072-.02.092-.014.08a.4.4 0 0 1 .11-.135.5.5 0 0 1 .221-.102c.054-.008.071.001.035-.006l-.21.978-.209.977c.423.09.966.078 1.425-.294.429-.35.577-.85.627-1.25zm-.851.69.197-.98c-.22-.044-.501-.083-.83-.12l-.111.994-.11.994a8 8 0 0 1 .658.093zm-.744-.106.111-.994a9 9 0 0 0-1.014-.059v2q.363 0 .793.047zm-.903-.053v-1c-.815 0-1.644.172-2.482.49l.356.935.356.935c.651-.248 1.238-.36 1.77-.36zm-2.126.425-.356-.934c-.847.323-1.675.8-2.482 1.414l.606.796.606.795c.681-.518 1.342-.892 1.982-1.136zm-2.232 1.276-.6-.8c-.806.604-1.547 1.392-2.231 2.341l.812.584.811.585c.592-.822 1.197-1.452 1.808-1.91zm7.877 25.881.477-.879-.005-.002zm-2.073-8.184-.863-.506-.003.006-.004.007zm3.082-2.657.258-.967-.371-.099-.342.175zm6.378 1.7.388.922 2.694-1.135-2.825-.753zm-1.488 1.116-.822-.569-.016.022-.014.023zm.584 2.976.411-.912-.011-.005-.012-.004zm3.72.532-.02 1h.003zm4.093-.425-.407-.914-.02.009-.021.01zm.531-2.817.707-.707-.023-.024-.026-.022zm-1.382-.425-.073.997h.009l.009.001zm-9.459-.691.072-.998h-.007zm-3.827-1.488.693-.721zm-.584-6.909-.861-.51-.007.012-.007.012zm2.922-2.604.332-.944-.428-.15-.395.223zm4.996 1.754.316.948 2.773-.924-2.758-.968zm-1.329.797-.789-.614-.022.029-.021.03zm0 1.7-.64.769.068.056.076.044zm1.223.266.064-.998h-.002zm8.237.532.073-.998h-.008zm6.112 2.338-.755.656.009.01.009.01zm-1.435 12.117.529.849zm-18.229-19.238-.644.764.009.008zm0-13.977-.644-.765zm16.635 0-.653.758.008.006zm0 13.977.643.765h.001zm-5.953-4.57-.732-.681-.014.014-.013.015zm0-4.89-.781.625.023.029.026.027zm-4.783 0-.755-.655-.004.004zm0 4.89-.759.65.013.015.014.015zm10.151-8.77-.335.943 1.236.44.096-1.31zm-5.527-1.966h-1v.706l.665.236zm.478-6.43-.97-.243-.014.056-.007.057zm6.696.16-.948-.317zm-1.062 3.985.979.2zm-8.929 38.848v-1c-4.464 0-7.511-.552-9.301-1.526l-.477.879-.478.878c2.249 1.224 5.721 1.77 10.256 1.77zm-9.778-1.647.472-.882c-.871-.466-1.472-1.017-1.858-1.63-.384-.61-.59-1.338-.59-2.218h-2c0 1.21.289 2.316.897 3.283.606.963 1.493 1.732 2.606 2.328zm-2.976-4.73h1c0-1.07.257-2.051.773-2.961l-.87-.493-.87-.493a7.9 7.9 0 0 0-1.033 3.947zm.903-3.454.863.506c.476-.813 1.332-1.585 2.675-2.273l-.456-.89-.455-.89c-1.562.8-2.762 1.8-3.49 3.041zm3.082-2.657-.257.966 6.377 1.7.258-.966.257-.966-6.377-1.7zm6.378 1.7-.388-.921c-.796.335-1.467.81-1.922 1.468l.822.57.822.568c.182-.263.504-.532 1.054-.763zm-1.488 1.116-.852-.524a3.7 3.7 0 0 0-.573 1.96h2c0-.295.081-.594.276-.912zm-.425 1.435h-1c0 .525.12 1.04.416 1.491.296.453.721.768 1.205.972l.388-.922.388-.921c-.188-.08-.269-.164-.309-.225-.04-.062-.088-.176-.088-.395zm1.009 1.541-.41.912c.911.41 2.333.584 4.11.62l.02-1 .02-1c-1.765-.035-2.823-.216-3.329-.444zm3.72.532-.017 1c1.067.018 1.975-.009 2.712-.085.712-.074 1.36-.203 1.845-.446l-.447-.895-.448-.894c-.152.076-.505.178-1.157.245-.627.066-1.447.092-2.471.075zm4.093-.425.406.913c.482-.214.89-.546 1.168-1.01.274-.457.382-.973.382-1.498h-2c0 .255-.052.394-.097.469-.04.068-.11.143-.266.212zm.956-1.595h1c0-.707-.192-1.403-.718-1.93l-.707.708-.707.707c.041.04.132.16.132.515zm-.425-1.222.658-.753c-.533-.466-1.264-.63-1.984-.67l-.056.998-.055.998c.555.031.745.15.778.18zm-1.382-.425.073-.998-9.46-.69-.072.997-.073.997 9.459.691zm-9.459-.691.065-.998c-1.462-.095-2.49-.53-3.199-1.211l-.693.72-.693.722c1.134 1.09 2.656 1.648 4.454 1.765zm-3.827-1.488.693-.721c-.683-.657-1.075-1.595-1.075-2.946h-2c0 1.767.53 3.273 1.689 4.388zm-1.382-3.667h1c0-1.052.231-1.963.672-2.756l-.874-.486-.875-.486c-.622 1.12-.923 2.37-.923 3.728zm.798-3.242.86.51c.447-.755 1.263-1.515 2.554-2.243l-.492-.871-.491-.871c-1.473.83-2.605 1.807-3.292 2.965zm2.922-2.604-.331.944 4.996 1.753.331-.943.331-.944-4.995-1.754zm4.996 1.754-.316-.949c-.713.238-1.376.585-1.802 1.132l.789.614.79.614c.07-.09.293-.275.855-.463zm-1.329.797-.832-.555c-.299.45-.486.958-.486 1.511h2c0-.084.025-.213.15-.401zm-.318.956h-1c0 .566.202 1.115.678 1.513l.64-.769.641-.768a.2.2 0 0 1 .039.056c.009.02.002.017.002-.032zm.318.744-.496.869c.457.26 1.059.358 1.656.395l.063-.998.062-.998a4 4 0 0 1-.581-.072 1.3 1.3 0 0 1-.207-.064zm1.223.266-.065.998 8.238.532.064-.998.065-.998-8.238-.532zm8.237.532-.073.997c2.801.205 4.516.945 5.43 1.997l.755-.656.755-.656c-1.425-1.64-3.784-2.46-6.794-2.68zm6.112 2.338-.737.677c.979 1.064 1.544 2.681 1.544 5.01h2c0-2.632-.64-4.806-2.071-6.364zm1.807 5.687h-1c0 2.658-.953 4.448-2.771 5.581l.529.849.529.849c2.504-1.56 3.713-4.056 3.713-7.28zm-3.242 6.43-.529-.849c-1.914 1.193-5.184 1.868-9.994 1.868v2c4.899 0 8.643-.67 11.052-2.17zm-9.885-17.006v-1c-3.655 0-6.16-.73-7.708-2.004l-.636.772-.635.772c2.066 1.701 5.123 2.46 8.979 2.46zm-8.344-2.232.645-.765c-1.517-1.28-2.355-3.26-2.355-6.144h-2c0 3.281.969 5.906 3.066 7.673zm-2.71-6.91h1c0-3.002.845-5.03 2.355-6.303l-.645-.764-.644-.765c-2.104 1.774-3.066 4.458-3.066 7.833zm2.71-7.067.645.764c1.547-1.304 4.048-2.05 7.699-2.05v-2c-3.861 0-6.921.778-8.988 2.521zm8.344-2.285v1c3.653 0 6.13.746 7.638 2.043l.653-.758.652-.758c-2.035-1.75-5.085-2.527-8.943-2.527zm8.291 2.285-.645.764c1.51 1.273 2.355 3.301 2.355 6.304h2c0-3.375-.962-6.059-3.066-7.833zm2.71 7.068h-1c0 2.884-.838 4.865-2.355 6.144l.645.765.644.764c2.097-1.767 3.066-4.392 3.066-7.673zm-2.71 6.909-.644-.766c-1.508 1.267-3.99 1.998-7.647 1.998v2c3.854 0 6.899-.758 8.934-2.467zm-8.291-3.827v1c1.221 0 2.381-.257 3.098-1.093l-.76-.65-.759-.652c-.134.156-.533.395-1.579.395zm2.338-.744.733.68c.716-.77.958-1.897.958-3.124h-2c0 1.04-.219 1.543-.423 1.764zm.691-2.444h1c0-1.228-.242-2.354-.958-3.125l-.733.68-.732.68c.204.221.423.724.423 1.765zm-.691-2.445.781-.625c-.711-.889-1.88-1.172-3.119-1.172v2c1.028 0 1.419.248 1.557.422zm-2.338-.797v-1c-1.273 0-2.455.282-3.2 1.142l.755.655.756.655c.176-.203.624-.452 1.689-.452zm-2.445.797-.759-.65c-.66.769-.878 1.882-.878 3.095h2c0-1.055.206-1.572.397-1.794zm-.637 2.445h-1c0 1.212.218 2.325.878 3.095l.759-.65.76-.652c-.191-.222-.397-.739-.397-1.793zm.637 2.444-.732.68c.748.807 1.92 1.064 3.177 1.064v-2c-1.081 0-1.54-.239-1.712-.424zm10.151-8.768.335-.943-5.527-1.966-.335.942-.335.942 5.527 1.967zm-5.527-1.967h1q0-1.762.155-3.414l-.996-.093-.995-.094a38 38 0 0 0-.164 3.601zm.159-3.507.996.093q.159-1.689.315-2.887l-.992-.13-.991-.129q-.163 1.246-.323 2.96zm.319-2.923.97.242c.028-.112.044-.081-.024-.014a.46.46 0 0 1-.308.134v-2c-.407 0-.8.146-1.106.452-.28.28-.424.63-.502.943zm.638-.638v1h5.421v-2h-5.421zm5.421 0v1c.084 0 .098.01.068 0a.54.54 0 0 1-.238-.176.6.6 0 0 1-.132-.331c-.003-.061.011-.072-.009-.012l.948.316.949.316c.125-.375.234-1.004-.194-1.538-.402-.502-1.01-.575-1.392-.575zm.637.797-.948-.316a35 35 0 0 0-1.094 4.101l.98.2.979.202q.414-2.017 1.032-3.87zm-1.062 3.986-.98-.201a34 34 0 0 0-.602 4.38l.997.072.997.073q.156-2.115.567-4.123zm7.575 26.306-.666.746zm-.053-22.108-.687-.726-.007.006zm18.76-.106-.667.745.006.006.007.006zm-13.392 13.02v-1h-1v1zm.957 4.624-.744.669.009.01.009.009zm5.792.478-.465-.885-.011.006-.009.005zm9.247-1.594 1-.012v-.033l-.003-.032zm-2.816 6.377.575.818.01-.007zm-13.18-14.561h-1v1h1zm8.237 0v1h1v-1zm-.956-3.72-.744.669zm-6.324 0-.725-.69-.01.01-.009.01zm3.294 20.3v-1c-4.253 0-7.146-.887-8.899-2.455l-.667.745-.666.746c2.286 2.045 5.77 2.965 10.232 2.965zm-9.566-2.71.667-.745c-1.747-1.563-2.696-3.928-2.696-7.28h-2c0 3.735 1.071 6.72 3.363 8.77zm-3.029-8.024h1v-5.634h-2v5.634zm0-5.634h1c0-3.546.943-6.064 2.67-7.73l-.694-.72-.694-.72c-2.24 2.16-3.282 5.277-3.282 9.17zm2.976-8.45.688.726c1.755-1.662 4.607-2.596 8.772-2.596v-2c-4.409 0-7.863.98-10.147 3.144zm9.46-2.87v1c4.019 0 6.834.896 8.633 2.509l.667-.745.668-.745c-2.312-2.072-5.697-3.018-9.968-3.018zm9.3 2.764-.654.757c1.808 1.562 2.79 3.956 2.79 7.374h2c0-3.809-1.109-6.836-3.482-8.888zm3.136 8.131h-1v4.145h2v-4.145zm0 4.145h-1c0 .094-.023-.019.107-.149.129-.13.243-.107.149-.107v2c.402 0 .887-.1 1.265-.478s.479-.864.479-1.266zm-.744.744v-1h-15.784v2h15.784zm-15.784 0h-1v1.542h2v-1.542zm0 1.542h-1c0 1.492.353 2.795 1.213 3.75l.744-.668.743-.669c-.415-.461-.7-1.213-.7-2.413zm.957 3.082-.726.688c.91.96 2.286 1.322 3.861 1.322v-2c-1.33 0-2.045-.313-2.41-.698zm3.135 1.01v1c1.218 0 2.296-.187 3.143-.658l-.486-.874-.485-.874c-.429.238-1.122.406-2.172.406zm2.657-.532.466.885a2.9 2.9 0 0 0 1.144-1.04c.279-.455.4-.965.4-1.492h-2c0 .216-.047.353-.105.447-.059.096-.164.207-.37.315zm1.01-1.647h1c0-.012.002.023-.021.083a.5.5 0 0 1-.142.198c-.131.112-.221.081-.093.081v-2c-.368 0-.83.076-1.209.4-.408.35-.535.827-.535 1.238zm.744-.638v1h6.749v-2h-6.749zm6.749 0v1c.071 0-.03.016-.149-.094-.118-.11-.109-.21-.104-.138l.997-.077.997-.077c-.029-.388-.162-.834-.529-1.174s-.821-.44-1.212-.44zm.744.69-1 .013c.033 2.624-.811 4.406-2.402 5.555l.586.81.585.81c2.236-1.614 3.27-4.084 3.231-7.2zm-2.816 6.378-.576-.818c-1.661 1.17-4.386 1.838-8.353 1.838v2c4.112 0 7.339-.678 9.504-2.202zm-13.18-14.561v1h8.237v-2h-8.237zm8.237 0h1v-.213h-2v.213zm0-.213h1c0-1.715-.327-3.192-1.213-4.176l-.743.669-.744.669c.39.432.7 1.294.7 2.838zm-.956-3.507.743-.67c-.904-1.004-2.264-1.393-3.826-1.393v2c1.273 0 1.968.319 2.339.732zm-3.083-1.063v-1c-1.62 0-3.025.383-3.966 1.374l.725.689.725.688c.405-.426 1.161-.751 2.516-.751zm-3.241 1.063-.744-.67c-.886.985-1.213 2.462-1.213 4.177h2c0-1.544.31-2.406.7-2.838zm-.957 3.507h-1v.213h2v-.213z" mask="url(#b)"/><g fill="currentColor" clip-path="url(#c)"><path d="m95.884 12.96-1.057 3.021-2.601-8.219-.022-.068h-1.718l3.278 10.359.022.068h2.065l1.806-5.16zm6.555-5.266h-1.718l-3.258 10.3-.04.127h1.716l3.26-10.3zm31.867 8.957v-4.3a1.92 1.92 0 0 0-1.916-1.917h-3.21c-.676 0-1.227.55-1.227 1.227v.252h4.743v1.6h-2.102c-.523 0-1.005.085-1.433.254a2.3 2.3 0 0 0-1.049.784c-.267.347-.397.782-.397 1.33s.128.967.39 1.322q.382.541 1.047.835c.421.18.898.27 1.418.27s.954-.069 1.286-.21c.358-.151.618-.327.818-.554q.108-.123.2-.244.086.271.305.476.352.33.934.33h1.238V16.65h-1.046zm-1.612-1.719c-.018.592-.203 1.057-.552 1.386-.357.347-.842.523-1.44.523-.408 0-.741-.093-1.018-.285-.225-.163-.335-.395-.335-.71 0-.316.1-.518.312-.668.254-.163.581-.246.97-.246h2.064zm-7.716-4.035-.002-.001a3.5 3.5 0 0 0-1.834-.459h-1.103c-.687 0-1.245.56-1.245 1.249v.252h2.113c.651 0 1.161.2 1.563.613.402.412.606 1 .606 1.75v.13c0 .767-.198 1.343-.606 1.762-.402.413-.919.613-1.579.613-.661 0-1.183-.207-1.581-.615-.406-.407-.604-.982-.604-1.76V7.618h-1.633v10.489h1.597v-.87c.179.22.406.42.689.612.45.305 1.066.46 1.829.46.644 0 1.242-.156 1.777-.461a3.4 3.4 0 0 0 1.283-1.332c.326-.576.484-1.247.484-2.05v-.19c0-.787-.158-1.472-.471-2.035a3.4 3.4 0 0 0-1.283-1.345m-8.822.001-.002-.001a3.5 3.5 0 0 0-1.834-.459h-1.103c-.687 0-1.245.56-1.245 1.249v.252h2.113c.65 0 1.161.2 1.562.613.403.412.607 1 .607 1.75v.13c0 .767-.199 1.343-.607 1.762-.401.413-.918.613-1.578.613-.661 0-1.183-.207-1.581-.615-.407-.407-.604-.982-.604-1.76V7.618h-1.634v10.489h1.598v-.87c.178.22.405.42.689.612.45.305 1.065.46 1.829.46.643 0 1.242-.156 1.777-.461a3.4 3.4 0 0 0 1.283-1.332c.326-.576.484-1.247.484-2.05v-.19c0-.787-.158-1.471-.471-2.035a3.4 3.4 0 0 0-1.283-1.345m-8.719-.231c-.54-.302-1.168-.454-1.867-.454s-1.368.162-1.927.484a3.44 3.44 0 0 0-1.327 1.363c-.313.577-.472 1.258-.472 2.023v.17c0 .755.159 1.431.472 2.008a3.4 3.4 0 0 0 1.342 1.366c.568.317 1.23.48 1.971.481h1.435a1.41 1.41 0 0 0 1.408-1.407v-.098h-2.803c-.617 0-1.136-.191-1.542-.57-.352-.323-.562-.77-.629-1.327h5.683v-.767c0-.747-.154-1.407-.459-1.964a3.26 3.26 0 0 0-1.285-1.308m-3.274 1.532c.36-.318.833-.479 1.407-.479.573 0 1.027.161 1.382.478.302.27.483.622.552 1.075h-3.958c.11-.448.317-.81.617-1.074"/></g><path stroke="currentColor" stroke-width=".046" d="M90.509 7.641h44.817V18.28H90.509z"/></g><defs><clipPath id="a"><path fill="#fff" d="M0 0h240v64H0z"/></clipPath><clipPath id="c"><path fill="#fff" d="M90.486 7.618h44.863v10.685H90.486z"/></clipPath></defs></svg>